# xmcd
#
# Track frame offsets: 
#        150
#        14288
#        27182
#        39479
#        53725
#        65777
#        87707
#        103156
#        122515
#        143975
#        160393
#
# Disc length: 2357 seconds
#
# Revision: 0
# Processed by: cddbd v1.5.2PL0 Copyright (c) Steve Scherf et al.
# Submitted via: ExactAudioCopy v0.95a5
#
DISCID=9809330b
DTITLE=Dan Vogler - Children of the Outback Land
DYEAR=2005
DGENRE=Gospel
TTITLE0=Children of the Outback Land
TTITLE1=Everlasting Arms
TTITLE2=Where Do You Stand?
TTITLE3=Now More Than Ever
TTITLE4=No Teardrops In Heaven
TTITLE5=I Will Go Another Mile
TTITLE6=Have You Been To Jesus
TTITLE7=What A Friend We Have
TTITLE8=Amazing Grace
TTITLE9=Gone (The Stone is Rolled Back)
TTITLE10=Our Love Will Show The Way
EXTD=
EXTT0=
EXTT1=
EXTT2=
EXTT3=
EXTT4=
EXTT5=
EXTT6=
EXTT7=
EXTT8=
EXTT9=
EXTT10=
PLAYORDER=
